# xmcd
#
# Track frame offsets:
#	150
#	16671
#	30813
#	58191
#	69506
#	84916
#	106481
#	137856
#	156308
#	173096
#
# Disc length: 2743 seconds
# Revision: 0
# Processed by: cddbd v1.5.2PL0 Copyright (c) Steve Scherf et al.
# Submitted via: dBpowerAMP V12.0
#
DISCID=750ab50a
DTITLE=Taj Mahal - Music Keeps Me Together
DYEAR=1975
DGENRE=Blues
TTITLE0=Music Keeps Me Together
TTITLE1=When I Feel The Sea Beneath My Soul
TTITLE2=Dear Ladies
TTITLE3=Aristocracy
TTITLE4=Further On Down The Road
TTITLE5=Roll, Turn, Spin
TTITLE6=West Indian Revelation
TTITLE7=My Ancestors
TTITLE8=Brown Eyed Handsome Man
TTITLE9=Why?... And We Repeat/Why?... And We Repeat!
EXTD=
EXTT0=
EXTT1=
EXTT2=
EXTT3=
EXTT4=
EXTT5=
EXTT6=
EXTT7=
EXTT8=
EXTT9=
PLAYORDER=
